<?xml version="1.0" encoding="UTF-8" standalone="no"?>
<!-- Created with Inkscape (http://www.inkscape.org/) -->

<svg
   width="512"
   height="512"
   viewBox="0 0 135.46666 135.46667"
   version="1.1"
   id="svg5"
   inkscape:version="1.2.2 (732a01da63, 2022-12-09)"
   sodipodi:docname="logo cape code project.svg"
   xml:space="preserve"
   inkscape:export-filename="..\..\..\xampp\htdocs\Cap Code Project\ressources\logo cape code project.png"
   inkscape:export-xdpi="96"
   inkscape:export-ydpi="96"
   xmlns:inkscape="http://www.inkscape.org/namespaces/inkscape"
   xmlns:sodipodi="http://sodipodi.sourceforge.net/DTD/sodipodi-0.dtd"
   xmlns="http://www.w3.org/2000/svg"
   xmlns:svg="http://www.w3.org/2000/svg"><sodipodi:namedview
     id="namedview7"
     pagecolor="#505050"
     bordercolor="#ffffff"
     borderopacity="1"
     inkscape:showpageshadow="0"
     inkscape:pageopacity="0"
     inkscape:pagecheckerboard="1"
     inkscape:deskcolor="#505050"
     inkscape:document-units="mm"
     showgrid="false"
     inkscape:zoom="1.104894"
     inkscape:cx="425.83269"
     inkscape:cy="306.81675"
     inkscape:window-width="1920"
     inkscape:window-height="1057"
     inkscape:window-x="-8"
     inkscape:window-y="-8"
     inkscape:window-maximized="1"
     inkscape:current-layer="layer1"><sodipodi:guide
       position="0,135.46666"
       orientation="0,512"
       id="guide9"
       inkscape:locked="false" /><sodipodi:guide
       position="135.46666,135.46666"
       orientation="512,0"
       id="guide11"
       inkscape:locked="false" /><sodipodi:guide
       position="135.46666,0"
       orientation="0,-512"
       id="guide13"
       inkscape:locked="false" /><sodipodi:guide
       position="0,0"
       orientation="-512,0"
       id="guide15"
       inkscape:locked="false" /></sodipodi:namedview><defs
     id="defs2"><linearGradient
       id="linearGradient2863"
       inkscape:swatch="solid"><stop
         style="stop-color:#000000;stop-opacity:1;"
         offset="0"
         id="stop2861" /></linearGradient></defs><g
     inkscape:label="Calque 1"
     inkscape:groupmode="layer"
     id="layer1"><g
       id="g6854"
       transform="translate(-0.50554587,-0.67487265)"><g
         id="g6734"><rect
           style="fill:#ececec;stroke-width:0.264583"
           id="rect691"
           width="134.44583"
           height="134.78448"
           x="1.0159636"
           y="1.0159636" /><path
           id="ellipse468"
           style="fill:#4f4f4d;fill-opacity:1;stroke-width:0.264583"
           d="M 65.868331,15.410946 A 51.136929,52.322128 0 0 0 18.09967,49.105013 H 35.875846 A 34.881512,36.546726 0 0 1 65.868331,31.18621 34.881512,36.546726 0 0 1 95.874768,49.105013 H 113.65043 A 51.136929,52.322128 0 0 0 65.868331,15.410946 Z M 17.750854,85.341044 A 51.136929,52.322128 0 0 0 65.868331,120.0552 51.136929,52.322128 0 0 0 113.98581,85.341044 H 96.407552 A 34.881512,36.546726 0 0 1 65.868331,104.27994 34.881512,36.546726 0 0 1 35.32911,85.341044 Z" /><path
           id="path186"
           style="fill:#3f616f;fill-opacity:1;stroke-width:0.239316"
           d="M 65.868187,34.749983 A 32.479019,32.983343 0 0 0 41.57717,45.868073 l 7.91063,6.62615 5.1e-4,0.13776 a 22.144236,22.488085 0 0 1 16.379877,-7.38705 22.144236,22.488085 0 0 1 16.35353,7.32528 l 7.97729,-6.68253 a 32.479019,32.983343 0 0 0 -24.33082,-11.1377 z m 32.452801,31.72656 -0.001,2.05624 a 32.479019,32.983343 0 0 0 0.0279,-0.79916 32.479019,32.983343 0 0 0 -0.0264,-1.25708 z m -49.505498,15.59338 -7.59489,7.10808 a 32.479019,32.983343 0 0 0 24.647587,11.538757 32.479019,32.983343 0 0 0 24.61349,-11.469137 l -7.60574,-7.11789 a 22.144236,22.488085 0 0 1 -17.00775,8.09159 22.144236,22.488085 0 0 1 -17.052697,-8.1514 z" /><text
           xml:space="preserve"
           style="font-style:normal;font-variant:normal;font-weight:normal;font-stretch:normal;font-size:24.6018px;font-family:Android;-inkscape-font-specification:Android;fill:#000000;fill-opacity:1;stroke:#4d4d4d;stroke-width:0.678;stroke-dasharray:none;stroke-opacity:1"
           x="2.2733796"
           y="69.383621"
           id="text6270"
           transform="scale(0.94262132,1.0608714)"><tspan
             sodipodi:role="line"
             id="tspan6268"
             style="fill:#000000;stroke:#4d4d4d;stroke-width:0.678;stroke-dasharray:none;stroke-opacity:1"
             x="2.2733796"
             y="69.383621">CAP CODE</tspan><tspan
             sodipodi:role="line"
             style="fill:#000000;stroke:#4d4d4d;stroke-width:0.678;stroke-dasharray:none;stroke-opacity:1"
             x="2.2733796"
             y="100.13587"
             id="tspan6272" /></text><text
           xml:space="preserve"
           style="font-style:normal;font-variant:normal;font-weight:normal;font-stretch:normal;font-size:6.84847px;font-family:Android;-inkscape-font-specification:Android;fill:#000000;fill-opacity:1;stroke:#3c3c3c;stroke-width:0.394003;stroke-dasharray:none;stroke-opacity:1"
           x="40.856548"
           y="90.687859"
           id="text6276"
           transform="scale(1.123718,0.88990297)"><tspan
             sodipodi:role="line"
             id="tspan6274"
             style="stroke:#3c3c3c;stroke-width:0.394003;stroke-dasharray:none;stroke-opacity:1"
             x="40.856548"
             y="90.687859">PROJECT</tspan></text><path
           style="fill:#ffffff;fill-opacity:1;stroke:#000000;stroke-width:0;stroke-dasharray:none;stroke-opacity:1"
           d="m 18.09967,49.105013 1.017892,-2.578797 c -0.0134,1.38914 0.672858,2.317067 2.801508,2.578797 z"
           id="path6468"
           sodipodi:nodetypes="cccc" /><path
           style="fill:#ffffff;fill-opacity:1;stroke:#000000;stroke-width:0;stroke-dasharray:none;stroke-opacity:1"
           d="m 113.65043,49.105013 -1.01789,-2.578797 c 0.0134,1.38914 -0.67286,2.317067 -2.80151,2.578797 z"
           id="path6470"
           sodipodi:nodetypes="cccc" /><path
           style="fill:#ffffff;fill-opacity:1;stroke:#000000;stroke-width:0;stroke-dasharray:none;stroke-opacity:1"
           d="m 110.90935,85.341044 h 3.07646 l -1.19812,3.112497 c 0.18152,-1.737447 -0.36732,-2.841919 -1.87834,-3.112497 z"
           id="path6474"
           sodipodi:nodetypes="cccc" /><path
           style="fill:#ffffff;fill-opacity:1;stroke:#000000;stroke-width:0;stroke-dasharray:none;stroke-opacity:1"
           d="m 20.827314,85.341044 h -3.07646 l 1.19812,3.112497 c -0.18152,-1.737447 0.36732,-2.841919 1.87834,-3.112497 z"
           id="path6476"
           sodipodi:nodetypes="cccc" /><text
           xml:space="preserve"
           style="font-style:normal;font-variant:normal;font-weight:normal;font-stretch:normal;font-size:4.16244px;font-family:Solange;-inkscape-font-specification:Solange;fill:#000000;fill-opacity:1;stroke:#000000;stroke-width:0;stroke-dasharray:none;stroke-opacity:1"
           x="2.4052644"
           y="120.23553"
           id="text6532"
           transform="scale(0.90252178,1.1080065)"><tspan
             sodipodi:role="line"
             id="tspan6530"
             style="font-style:normal;font-variant:normal;font-weight:normal;font-stretch:normal;font-family:Solange;-inkscape-font-specification:Solange;fill:#000000;stroke:#000000;stroke-width:0;stroke-opacity:1"
             x="2.4052644"
             y="120.23553">CODE WIZARD</tspan></text><g
           id="g6715"
           transform="matrix(0.8325196,0,0,0.8325196,15.658624,12.780422)"><path
             id="path6586"
             style="fill:#000000;fill-opacity:1;stroke:#000000;stroke-width:0;stroke-dasharray:none;stroke-opacity:1"
             d="m 23.734385,140.61208 a 2.0220244,2.1004355 0 0 0 -2.022054,2.10045 2.0220244,2.1004355 0 0 0 2.022054,2.10045 2.0220244,2.1004355 0 0 0 2.022054,-2.10045 2.0220244,2.1004355 0 0 0 -2.022054,-2.10045 z m 0,0.25636 a 1.7752608,1.8441028 0 0 1 1.775188,1.84409 1.7752608,1.8441028 0 0 1 -1.775188,1.8441 1.7752608,1.8441028 0 0 1 -1.775188,-1.8441 1.7752608,1.8441028 0 0 1 1.775188,-1.84409 z" /><path
             id="path6705"
             style="fill:#000000;fill-opacity:1;stroke:#000000;stroke-width:0;stroke-dasharray:none;stroke-opacity:1"
             d="m 23.806958,141.25743 a 1.4007556,1.4550596 0 0 0 -1.400862,1.4551 1.4007556,1.4550596 0 0 0 1.400862,1.4551 1.4007556,1.4550596 0 0 0 1.255715,-0.81058 h -0.575738 a 0.92075763,0.95645331 0 0 1 -0.679977,0.31181 0.92075763,0.95645331 0 0 1 -0.920878,-0.95633 0.92075763,0.95645331 0 0 1 0.920878,-0.95664 0.92075763,0.95645331 0 0 1 0.679674,0.31181 h 0.576041 a 1.4007556,1.4550596 0 0 0 -1.255715,-0.81027 z" /></g></g><text
         xml:space="preserve"
         style="font-style:normal;font-variant:normal;font-weight:normal;font-stretch:normal;font-size:4.91594px;font-family:Solange;-inkscape-font-specification:Solange;fill:#000000;fill-opacity:1;stroke:#000000;stroke-width:0;stroke-dasharray:none;stroke-opacity:1"
         x="38.723743"
         y="133.27757"
         id="text6832"><tspan
           sodipodi:role="line"
           id="tspan6830"
           style="stroke-width:0;stroke-dasharray:none"
           x="38.723743"
           y="133.27757">2023</tspan></text></g></g></svg>
